<svg xmlns="http://www.w3.org/2000/svg">
    <symbol id="swiper-btn" viewBox="0 0 35 30">
        <path fill-rule="currentColor" clip-rule="evenodd" d="M3.49954 16.0344L33.2505 15.7074C33.8028 15.7013 34.2455 15.2487 34.2395 14.6965C34.2334 14.1442 33.7808 13.7014 33.2285 13.7075L3.3322 14.0361L14.912 1.68395C15.2897 1.28103 15.2693 0.64819 14.8663 0.270468C14.4634 -0.107255 13.8306 -0.086829 13.4529 0.31609L0.270387 14.3779C-0.107335 14.7808 -0.0869094 15.4137 0.31601 15.7914L15.0205 29.5763C15.4234 29.9541 16.0563 29.9336 16.434 29.5307C16.8117 29.1278 16.7913 28.495 16.3884 28.1172L3.49954 16.0344Z"/>
    </symbol>
    <symbol  id="swiper-next" viewBox="0 0 35 30">
        <path fill-rule="currentColor" clip-rule="evenodd" d="M30.74 16.0344L0.98898 15.7074C0.436728 15.7013 -0.00603869 15.2487 3.19817e-05 14.6965C0.00610265 14.1442 0.458713 13.7014 1.01096 13.7075L30.9073 14.0361L19.3275 1.68395C18.9498 1.28103 18.9702 0.64819 19.3732 0.270468C19.7761 -0.107255 20.4089 -0.086829 20.7866 0.31609L33.9691 14.3779C34.3468 14.7808 34.3264 15.4137 33.9235 15.7914L19.219 29.5763C18.8161 29.9541 18.1832 29.9336 17.8055 29.5307C17.4278 29.1278 17.4482 28.495 17.8511 28.1172L30.74 16.0344Z" />
    </symbol>
    <symbol id="star-reviews" viewBox="0 0 25 24">
        <path d="M11.2391 0.690968C11.5385 -0.230343 12.8419 -0.230344 13.1412 0.690967L15.3334 7.43768C15.4673 7.8497 15.8512 8.12866 16.2844 8.12866H23.3783C24.3471 8.12866 24.7498 9.36828 23.9661 9.93768L18.227 14.1074C17.8766 14.362 17.7299 14.8134 17.8638 15.2254L20.0559 21.9721C20.3553 22.8934 19.3008 23.6596 18.5171 23.0902L12.778 18.9205C12.4275 18.6658 11.9529 18.6658 11.6024 18.9205L5.86331 23.0902C5.07959 23.6596 4.02511 22.8934 4.32446 21.9721L6.5166 15.2254C6.65048 14.8134 6.50382 14.362 6.15333 14.1074L0.414236 9.93768C-0.369477 9.36828 0.0332973 8.12866 1.00202 8.12866H8.09593C8.52916 8.12866 8.91312 7.8497 9.04699 7.43768L11.2391 0.690968Z"/>
    </symbol>
    <symbol id="arrow-drop-list" viewBox="0 0 26 25">
        <path fill-rule="evenodd" clip-rule="evenodd" d="M21.7893 22.3082L0.30817 1.72206C-0.0905732 1.33993 -0.104042 0.706913 0.278087 0.30817C0.660216 -0.0905732 1.29324 -0.104041 1.69198 0.278088L23.2781 20.9648V4.03351C23.2781 3.48122 23.7258 3.03351 24.2781 3.03351C24.8304 3.03351 25.2781 3.48122 25.2781 4.03351V23.3082C25.2781 23.8605 24.8304 24.3082 24.2781 24.3082H4.12253C3.57025 24.3082 3.12253 23.8605 3.12253 23.3082C3.12253 22.7559 3.57025 22.3082 4.12253 22.3082H21.7893Z"/>
    </symbol>
</svg>